<?xml version="1.0" encoding="utf-8"?>
<!-- Generator: Adobe Illustrator 23.1.1, SVG Export Plug-In . SVG Version: 6.00 Build 0)  -->
<svg version="1.1" id="Layer_1" xmlns="http://www.w3.org/2000/svg" xmlns:xlink="http://www.w3.org/1999/xlink" x="0px" y="0px"
	 viewBox="0 0 20 20" enable-background="new 0 0 20 20" xml:space="preserve">
<g>
	<path id="Pdf" fill="#E02020" d="M12.835976,0c0.483868,0,0.950597,0.148471,1.315807,0.419736l0,0l4.648178,3.472873
		c0.428492,0.320384,0.673723,0.781425,0.673723,1.263675l0,0v13.159187c0,0.928778-0.893246,1.684528-1.99085,1.684528l0,0
		H2.517167c-1.097605,0-1.990851-0.755751-1.990851-1.684528l0,0V1.685644C0.526316,0.755749,1.419562,0,2.517167,0l0,0H12.835976z
		 M10.618662,5.008017c-0.354969,0.03837-0.653847,0.207828-0.865656,0.493987
		C9.33106,6.069526,9.284178,7.100659,9.614032,8.565027c-0.689009,1.317291-1.656804,2.81843-2.60283,4.039803
		c-1.923867,0.41725-2.990451,0.992765-3.260026,1.760119c-0.108836,0.308542-0.138138,0.788136,0.334039,1.306102
		c0.143159,0.158268,0.331528,0.265377,0.545012,0.31014c0.072835,0.015987,0.148184,0.022382,0.224367,0.022382
		c0.424458,0,0.88826-0.230206,1.459226-0.725789c0.430317-0.375684,0.915889-0.896847,1.44332-1.550696
		c1.226487-0.228609,2.684875-0.366093,3.92392-0.36929c0.574313,0.781743,1.161185,1.238958,1.744708,1.358858
		c0.476362,0.100714,0.958585-0.031974,1.343693-0.364493c0.519059-0.450822,0.536639-0.86807,0.460456-1.141441
		c-0.128926-0.457215-0.584359-0.75936-1.390575-0.925622c-0.392642-0.081531-0.874865-0.134287-1.434948-0.156668
		c-0.575989-0.944806-1.100907-2.209343-1.41653-3.416328c1.146117-2.318051,0.843892-2.91275,0.714126-3.168535
		c-0.138136-0.271772-0.384272-0.455616-0.694032-0.519563C10.881541,5.000025,10.750101,4.995228,10.618662,5.008017z
		 M10.122208,10.294773c0.235251,0.650653,0.509013,1.274128,0.802867,1.833657
		c-0.682312,0.025578-1.396437,0.084729-2.097166,0.172655C9.285014,11.647235,9.726216,10.964608,10.122208,10.294773z"/>
</g>
</svg>
