<svg width="20" height="20" viewBox="0 0 20 20" fill="none" xmlns="http://www.w3.org/2000/svg">
<g clip-path="url(#clip0_291_471)">
<path d="M19.9808 0.730469C19.4183 1.23438 18.8831 1.72266 18.3753 2.23828C16.3714 4.28516 14.6253 6.53906 12.9769 8.86719C11.2073 11.3633 9.55108 13.9336 8.01593 16.582C8.0003 16.6055 7.98468 16.6328 7.97296 16.6523C7.92999 16.6641 7.91436 16.6406 7.89874 16.6172C6.48858 14.2578 4.86749 12.0391 3.26983 9.80469C2.98467 9.40625 2.69561 9.00781 2.39874 8.61328C2.32061 8.50781 2.32452 8.45313 2.41827 8.35938C2.82061 7.97266 3.22296 7.58203 3.60967 7.17969C3.72686 7.05859 3.80108 7.07812 3.92218 7.16406C5.18389 8.05078 6.45342 8.92578 7.71124 9.81641C7.86358 9.92188 7.92608 9.90625 8.03936 9.76562C10.1253 7.09766 12.4261 4.63672 15.0433 2.47656C15.7698 1.87891 16.512 1.30859 17.305 0.800781C17.387 0.75 17.4651 0.703125 17.5706 0.703125C18.3401 0.707031 19.1058 0.707031 19.8753 0.707031C19.9026 0.707031 19.9222 0.714844 19.9808 0.730469Z" fill="#314259"/>
<path d="M1.74225 4.20704C1.55866 4.21094 1.37897 4.03125 1.38288 3.84766C1.38678 3.66016 1.53913 3.50782 1.72663 3.50391C1.92584 3.4961 2.086 3.64454 2.08991 3.84375C2.08991 4.04297 1.93756 4.20313 1.74225 4.20704Z" fill="#314259"/>
<path d="M8.9694 3.85938C8.96549 4.04297 8.7819 4.21484 8.59831 4.20312C8.40299 4.19141 8.25456 4.02734 8.26627 3.82813C8.27409 3.64063 8.42643 3.5 8.62174 3.5C8.81705 3.50391 8.97721 3.66797 8.9694 3.85938Z" fill="#314259"/>
<path d="M3.11719 3.5C3.3125 3.50391 3.47656 3.66797 3.46484 3.85938C3.45703 4.03906 3.29297 4.20312 3.11719 4.20312C2.92969 4.20703 2.75781 4.03516 2.75781 3.84766C2.76172 3.65625 2.92188 3.5 3.11719 3.5Z" fill="#314259"/>
<path d="M4.84382 3.84766C4.84382 4.03516 4.67195 4.21094 4.48835 4.20703C4.29304 4.20312 4.1407 4.04297 4.1446 3.84375C4.14851 3.65234 4.29304 3.50781 4.48445 3.50391C4.67976 3.49609 4.84382 3.65625 4.84382 3.84766Z" fill="#314259"/>
<path d="M7.24219 3.5C7.44141 3.50391 7.59766 3.66406 7.58984 3.85938C7.58594 4.04688 7.41016 4.21484 7.22266 4.20312C7.04687 4.19531 6.88672 4.02734 6.88281 3.84766C6.88281 3.66016 7.04687 3.5 7.24219 3.5Z" fill="#314259"/>
<path d="M11.7149 3.85156C11.7149 4.04688 11.5509 4.20703 11.3594 4.20312C11.1837 4.19922 11.0157 4.03516 11.0118 3.85938C11.0079 3.66406 11.168 3.50391 11.3634 3.5C11.5587 3.5 11.7149 3.65234 11.7149 3.85156Z" fill="#314259"/>
<path d="M15.8365 13.4648C15.8326 13.6641 15.6725 13.8203 15.4771 13.8125C15.2935 13.8047 15.1256 13.625 15.1373 13.4414C15.149 13.2578 15.3014 13.1133 15.4928 13.1133C15.6881 13.1094 15.8404 13.2617 15.8365 13.4648Z" fill="#314259"/>
<path d="M1.73856 18.6016C1.94168 18.6016 2.09012 18.75 2.09012 18.9492C2.08621 19.1484 1.92996 19.3008 1.73074 19.2969C1.55106 19.293 1.38699 19.1328 1.38699 18.9531C1.37918 18.7578 1.53934 18.6016 1.73856 18.6016Z" fill="#314259"/>
<path d="M5.85215 4.20312C5.66465 4.19921 5.50059 4.01952 5.51231 3.83202C5.52012 3.64062 5.6959 3.48827 5.88731 3.49999C6.07481 3.51171 6.21544 3.66406 6.21153 3.85546C6.20762 4.05468 6.04747 4.21093 5.85215 4.20312Z" fill="#314259"/>
<path d="M15.4616 17.9258C15.2741 17.9062 15.1179 17.7266 15.1374 17.5391C15.1569 17.3477 15.3405 17.1992 15.528 17.2227C15.7233 17.2461 15.8601 17.418 15.8366 17.6172C15.8132 17.8008 15.6413 17.9453 15.4616 17.9258Z" fill="#314259"/>
<path d="M15.4961 11.0586C15.2969 11.0625 15.1328 10.9102 15.1328 10.7148C15.1328 10.5273 15.3008 10.3555 15.4922 10.3555C15.6758 10.3555 15.8281 10.5078 15.8359 10.6953C15.8438 10.8984 15.6953 11.0547 15.4961 11.0586Z" fill="#314259"/>
<path d="M8.26569 18.9414C8.26569 18.7461 8.42194 18.5937 8.62507 18.6016C8.82429 18.6055 8.97663 18.7656 8.97273 18.9609C8.96491 19.1406 8.80085 19.2969 8.62116 19.2969C8.42194 19.2969 8.26179 19.1367 8.26569 18.9414Z" fill="#314259"/>
<path d="M15.8359 16.207C15.832 16.4023 15.6719 16.5547 15.4766 16.5508C15.2969 16.543 15.1367 16.3828 15.1367 16.2031C15.1367 16.0156 15.3086 15.8438 15.4922 15.8477C15.6875 15.8516 15.8398 16.0078 15.8359 16.207Z" fill="#314259"/>
<path d="M7.58991 18.9492C7.58991 19.1367 7.41804 19.3008 7.22663 19.2969C7.04695 19.293 6.88679 19.1328 6.88288 18.9531C6.87898 18.7617 7.03913 18.6016 7.23444 18.6016C7.43757 18.6016 7.59382 18.7539 7.58991 18.9492Z" fill="#314259"/>
<path d="M12.7461 19.2969C12.5547 19.3008 12.3867 19.1367 12.3867 18.9492C12.3867 18.7617 12.5352 18.6094 12.7227 18.6016C12.9219 18.5937 13.0898 18.7383 13.0977 18.9336C13.1016 19.1211 12.9375 19.293 12.7461 19.2969Z" fill="#314259"/>
<path d="M15.5001 8.32031C15.3126 8.32421 15.1407 8.16015 15.1368 7.97265C15.1329 7.79687 15.2891 7.62499 15.4688 7.61718C15.6641 7.60546 15.8321 7.75781 15.836 7.95312C15.8438 8.14843 15.6915 8.3164 15.5001 8.32031Z" fill="#314259"/>
<path d="M15.4807 11.7305C15.6721 11.7227 15.8323 11.8828 15.8362 12.082C15.8401 12.2773 15.6839 12.4375 15.4886 12.4375C15.3128 12.4375 15.1409 12.2773 15.137 12.1016C15.1292 11.9141 15.2893 11.7383 15.4807 11.7305Z" fill="#314259"/>
<path d="M15.8362 9.34765C15.8323 9.54297 15.6682 9.70312 15.4768 9.69531C15.2854 9.6875 15.1253 9.51562 15.1331 9.32812C15.1409 9.14062 15.2971 9 15.4846 9C15.6878 8.99219 15.8401 9.14453 15.8362 9.34765Z" fill="#314259"/>
<path d="M0.363576 3.5C0.562795 3.5 0.711232 3.65234 0.711232 3.85156C0.711232 4.04688 0.54717 4.20703 0.35967 4.20312C0.176076 4.19922 0.0276384 4.04297 0.0237321 3.85547C0.0159196 3.65625 0.164357 3.50391 0.363576 3.5Z" fill="#314259"/>
<path d="M9.6446 3.84766C9.64851 3.64454 9.80085 3.4961 10.0001 3.50391C10.1915 3.50782 10.3321 3.65625 10.3321 3.84766C10.336 4.04688 10.1798 4.20704 9.98835 4.20704C9.79695 4.20704 9.6407 4.04297 9.6446 3.84766Z" fill="#314259"/>
<path d="M0.355756 8.32031C0.16435 8.31641 0.0120064 8.15234 0.0198189 7.95313C0.0237251 7.76563 0.176069 7.61719 0.363569 7.61328C0.554975 7.61328 0.719038 7.77734 0.719038 7.96875C0.715131 8.16016 0.543256 8.32813 0.355756 8.32031Z" fill="#314259"/>
<path d="M3.46902 18.9492C3.46512 19.1367 3.29324 19.3008 3.10574 19.2969C2.91434 19.293 2.75418 19.1172 2.76199 18.9297C2.76981 18.7461 2.92606 18.6016 3.11356 18.6016C3.31277 18.6016 3.47293 18.7578 3.46902 18.9492Z" fill="#314259"/>
<path d="M4.48077 18.6016C4.67999 18.5977 4.84405 18.75 4.84405 18.9453C4.84405 19.1328 4.67608 19.3008 4.48858 19.2969C4.29718 19.293 4.14874 19.1484 4.14483 18.9609C4.13702 18.7578 4.28155 18.6055 4.48077 18.6016Z" fill="#314259"/>
<path d="M0.715146 12.0937C0.71124 12.2852 0.539365 12.4453 0.347958 12.4375C0.152646 12.4297 0.00811472 12.2656 0.0159272 12.0664C0.0237397 11.8789 0.17999 11.7305 0.363583 11.7344C0.558896 11.7305 0.719052 11.9023 0.715146 12.0937Z" fill="#314259"/>
<path d="M0.707333 16.207C0.703427 16.4062 0.551083 16.5586 0.351865 16.5508C0.156552 16.5469 0.012021 16.3867 0.0198335 16.1836C0.027646 15.9961 0.17999 15.8477 0.363583 15.8438C0.55499 15.8438 0.71124 16.0078 0.707333 16.207Z" fill="#314259"/>
<path d="M11.7151 18.9453C11.7151 19.1367 11.555 19.3008 11.3597 19.2969C11.18 19.2969 11.0159 19.1367 11.0081 18.9609C11.0003 18.7656 11.1565 18.6094 11.3558 18.6055C11.5589 18.5977 11.7151 18.7461 11.7151 18.9453Z" fill="#314259"/>
<path d="M13.7696 18.9414C13.7696 18.7422 13.9219 18.5938 14.1251 18.6016C14.3126 18.6055 14.4649 18.7539 14.4688 18.9375C14.4727 19.1289 14.3087 19.2969 14.1173 19.2969C13.918 19.2969 13.7657 19.1445 13.7696 18.9414Z" fill="#314259"/>
<path d="M15.4883 18.6016C15.6915 18.6016 15.8399 18.7539 15.836 18.9531C15.8321 19.1523 15.6759 19.3008 15.4766 19.2969C15.293 19.293 15.1368 19.1367 15.1329 18.9531C15.129 18.7617 15.293 18.6016 15.4883 18.6016Z" fill="#314259"/>
<path d="M0.707341 6.59766C0.703435 6.80078 0.551091 6.94922 0.351873 6.94141C0.152654 6.9375 0.0120288 6.77734 0.0198413 6.57422C0.0276538 6.38672 0.176091 6.23828 0.363591 6.23438C0.551091 6.23828 0.711248 6.40234 0.707341 6.59766Z" fill="#314259"/>
<path d="M15.8359 14.8398C15.832 15.0391 15.6758 15.1836 15.4727 15.1719C15.2852 15.1641 15.1328 15.0117 15.1328 14.8281C15.1328 14.6367 15.293 14.4805 15.4922 14.4844C15.6992 14.4883 15.8398 14.6328 15.8359 14.8398Z" fill="#314259"/>
<path d="M0.707105 17.5742C0.707105 17.7695 0.546948 17.9336 0.355542 17.9297C0.164136 17.9258 0.0117922 17.7617 0.0156985 17.5625C0.0196047 17.375 0.168042 17.2266 0.355542 17.2227C0.550855 17.2187 0.707105 17.375 0.707105 17.5742Z" fill="#314259"/>
<path d="M0.707105 13.457C0.707105 13.6563 0.550855 13.8164 0.359448 13.8125C0.168042 13.8086 0.0156985 13.6484 0.0196047 13.4492C0.023511 13.2578 0.168042 13.1133 0.355542 13.1094C0.558667 13.1055 0.707105 13.25 0.707105 13.457Z" fill="#314259"/>
<path d="M0.35945 10.3555C0.554763 10.3516 0.707107 10.5117 0.707107 10.7109C0.707107 10.9062 0.574294 11.0508 0.378982 11.0586C0.175857 11.0664 0.0235128 10.9219 0.0196066 10.7226C0.0157003 10.5195 0.164138 10.3594 0.35945 10.3555Z" fill="#314259"/>
<path d="M6.21101 18.9648C6.1993 19.168 6.04695 19.2969 5.83992 19.2852C5.65242 19.2734 5.50789 19.1211 5.5118 18.9336C5.5157 18.7383 5.67976 18.5898 5.87898 18.5977C6.0782 18.6055 6.21883 18.7656 6.21101 18.9648Z" fill="#314259"/>
<path d="M0.363353 9.69531C0.171947 9.69531 0.0156967 9.53516 0.0196029 9.33594C0.0235092 9.13672 0.175853 8.99219 0.375072 8.99609C0.570384 9 0.707103 9.14063 0.707103 9.33594C0.711009 9.53516 0.554759 9.69531 0.363353 9.69531Z" fill="#314259"/>
<path d="M0.707031 5.21875C0.707031 5.41797 0.574219 5.55859 0.375 5.56641C0.167969 5.57422 0.0195313 5.43359 0.015625 5.22656C0.015625 5.01953 0.160156 4.875 0.367188 4.87891C0.570312 4.88281 0.707031 5.02344 0.707031 5.21875Z" fill="#314259"/>
<path d="M0.367265 18.6016C0.566484 18.6016 0.707109 18.7383 0.711015 18.9375C0.714921 19.1445 0.57039 19.293 0.363359 19.2891C0.16414 19.2891 0.0235148 19.1523 0.0196085 18.9531C0.0157023 18.7461 0.160234 18.6016 0.367265 18.6016Z" fill="#314259"/>
<path d="M9.99677 18.6016C10.2038 18.6055 10.3444 18.7539 10.3327 18.9609C10.3249 19.1562 10.1843 19.2891 9.98115 19.2851C9.77412 19.2812 9.63349 19.1328 9.64521 18.9258C9.65302 18.7305 9.79756 18.5976 9.99677 18.6016Z" fill="#314259"/>
<path d="M0.707113 14.832C0.703207 15.0391 0.554769 15.1797 0.347738 15.1719C0.152425 15.1641 0.0157066 15.0234 0.0196129 14.8242C0.0235191 14.6172 0.171957 14.4766 0.378988 14.4844C0.578207 14.4922 0.711019 14.6328 0.707113 14.832Z" fill="#314259"/>
</g>
<defs>
<clipPath id="clip0_291_471">
<rect width="20" height="20" fill="white"/>
</clipPath>
</defs>
</svg>