<svg width="50" height="50" viewBox="0 0 50 50" fill="none" xmlns="http://www.w3.org/2000/svg">
<g clip-path="url(#clip0_6_304)">
<path d="M25 50C38.8071 50 50 38.8071 50 25C50 11.1929 38.8071 0 25 0C11.1929 0 0 11.1929 0 25C0 38.8071 11.1929 50 25 50Z" fill="#F3F5F9"/>
<path d="M25 31.5C28.5899 31.5 31.5 28.5899 31.5 25C31.5 21.4101 28.5899 18.5 25 18.5C21.4101 18.5 18.5 21.4101 18.5 25C18.5 28.5899 21.4101 31.5 25 31.5Z" stroke="#343E4A"/>
<path d="M25 29C27.2091 29 29 27.2091 29 25C29 22.7909 27.2091 21 25 21C22.7909 21 21 22.7909 21 25C21 27.2091 22.7909 29 25 29Z" fill="#343E4A"/>
</g>
<defs>
<clipPath id="clip0_6_304">
<rect width="50" height="50" fill="white"/>
</clipPath>
</defs>
</svg>